#tb 0: 1/25
#media_type 0: video
#codec_id 0: rawvideo
#dimensions 0: 352x256
#sar 0: 1/1
0,          0,          0,        1,    90112, 0xafeb17f4
0,          1,          1,        1,    90112, 0x12f82374
0,          2,          2,        1,    90112, 0x74337d2e
0,          3,          3,        1,    90112, 0xed3ec257
0,          4,          4,        1,    90112, 0x2d49f7fe
0,          5,          5,        1,    90112, 0x735df02e
0,          6,          6,        1,    90112, 0xcdca1e00
0,          7,          7,        1,    90112, 0x66c922b5
0,          8,          8,        1,    90112, 0xe37a25ee
0,          9,          9,        1,    90112, 0x9f760087
0,         10,         10,        1,    90112, 0xd4f72f08
0,         11,         11,        1,    90112, 0x72402ada
0,         12,         12,        1,    90112, 0xb7d34849
0,         13,         13,        1,    90112, 0xe69570b2
0,         14,         14,        1,    90112, 0x335c8638
0,         15,         15,        1,    90112, 0xe99b9dee
0,         16,         16,        1,    90112, 0x5f22b3b5
0,         17,         17,        1,    90112, 0x722cbbad
0,         18,         18,        1,    90112, 0x3418beb9
0,         19,         19,        1,    90112, 0x3ba6be37
0,         20,         20,        1,    90112, 0xa32aad98
0,         21,         21,        1,    90112, 0x337ab130
0,         22,         22,        1,    90112, 0x5a47af46
0,         23,         23,        1,    90112, 0x98a3b52c
0,         24,         24,        1,    90112, 0x0182bcde
0,         25,         25,        1,    90112, 0x9717c116
0,         26,         26,        1,    90112, 0x6c3bbeb4
0,         27,         27,        1,    90112, 0x8461bb7b
0,         28,         28,        1,    90112, 0xecc7bb67
0,         29,         29,        1,    90112, 0xd168bb49
0,         30,         30,        1,    90112, 0x09b4c765
0,         31,         31,        1,    90112, 0xeb12c274
0,         32,         32,        1,    90112, 0x66c4c08a
0,         33,         33,        1,    90112, 0x7520c5f8
0,         34,         34,        1,    90112, 0x8092c053
0,         35,         35,        1,    90112, 0xdfbeb5d1
0,         36,         36,        1,    90112, 0x1590b27a
0,         37,         37,        1,    90112, 0x2961aafa
0,         38,         38,        1,    90112, 0xd9fe9c4f
0,         39,         39,        1,    90112, 0x5ed1b4d7
0,         40,         40,        1,    90112, 0x54b9bf27
0,         41,         41,        1,    90112, 0x1082c26f
0,         42,         42,        1,    90112, 0xd8efc986
0,         43,         43,        1,    90112, 0x6430c724
0,         44,         44,        1,    90112, 0x6ef8c7fb
0,         45,         45,        1,    90112, 0xc986c215
0,         46,         46,        1,    90112, 0x359cc6e8
0,         47,         47,        1,    90112, 0xdd84c52b
0,         48,         48,        1,    90112, 0x56bfc652
0,         49,         49,        1,    90112, 0x65c1ce9a
